<svg width="22" height="22" viewBox="0 0 28 35" fill="none" xmlns="http://www.w3.org/2000/svg"><path d="M11.236 9.46v3.036c0 1.632-.127 3.008-.383 4.129-.246 1.121-.601 2.023-1.066 2.707-.465.684-1.025 1.18-1.682 1.49-.647.301-1.376.451-2.187.451a5.466 5.466 0 0 1-1.791-.287 4.051 4.051 0 0 1-1.477-.916c-.437-.428-.81-.984-1.12-1.668-.31-.683-.548-1.513-.712-2.488C.654 14.94.572 13.8.572 12.496V9.461c0-1.632.128-2.999.383-4.102.255-1.102.615-1.987 1.08-2.652.474-.674 1.035-1.158 1.682-1.45C4.373.968 5.102.82 5.904.82c.647 0 1.244.096 1.791.287a3.841 3.841 0 0 1 1.477.89c.437.4.811.938 1.121 1.612.31.666.542 1.481.697 2.448.164.966.246 2.1.246 3.404ZM8.83 12.907V9.037c0-.893-.04-1.677-.123-2.351a9.509 9.509 0 0 0-.355-1.75c-.155-.484-.356-.875-.602-1.176-.237-.301-.51-.52-.82-.656a2.378 2.378 0 0 0-1.026-.22c-.465 0-.88.115-1.244.343-.355.218-.66.57-.916 1.052-.246.483-.433 1.117-.56 1.9-.128.785-.192 1.737-.192 2.858v3.87c0 .893.041 1.68.123 2.364.091.684.214 1.276.37 1.778.163.492.364.898.6 1.217.238.319.511.556.821.71.31.146.647.22 1.012.22.483 0 .902-.12 1.258-.356.364-.237.67-.606.916-1.108.246-.51.428-1.162.547-1.955.127-.802.191-1.759.191-2.87ZM21.64.984V21h-2.42V4.143l-4.183 1.859V3.719L21.271.984h.37Z" fill="#DF3D3A"/></svg>