<svg width="26" height="22" viewBox="0 0 28 35" fill="none" xmlns="http://www.w3.org/2000/svg"><path d="M11.236 12.51c0 2.935-.428 5.131-1.285 6.59-.857 1.449-2.201 2.173-4.033 2.173-1.777 0-3.104-.697-3.979-2.091-.875-1.395-1.33-3.491-1.367-6.29V9.476c0-2.908.429-5.077 1.285-6.508C2.723 1.536 4.067.82 5.891.82c1.795 0 3.121.68 3.978 2.037.866 1.358 1.322 3.414 1.367 6.166v3.487Zm-2.42-3.46c0-2.105-.232-3.654-.697-4.648C7.654 3.4 6.911 2.898 5.891 2.898c-.994 0-1.723.493-2.188 1.477-.465.975-.706 2.452-.724 4.43v4.101c0 2.097.241 3.673.724 4.73.483 1.049 1.221 1.573 2.215 1.573.984 0 1.709-.497 2.174-1.49.465-.994.706-2.511.724-4.553V9.051ZM25.564 21H14.435v-1.818l5.674-7.52c.857-1.157 1.45-2.105 1.778-2.844a5.685 5.685 0 0 0 .506-2.365c0-1.057-.247-1.914-.739-2.57-.492-.656-1.139-.985-1.941-.985-1.012 0-1.796.351-2.352 1.053-.547.693-.82 1.695-.82 3.008h-2.42c0-1.832.501-3.313 1.504-4.443C16.628 1.386 17.99.82 19.713.82c1.586 0 2.834.488 3.746 1.463.911.966 1.367 2.256 1.367 3.87 0 1.968-1.025 4.297-3.076 6.986l-4.43 5.797h8.244V21Z" fill="#DF3D3A"/></svg>