<svg width="26" height="22" viewBox="0 0 28 35" fill="none" xmlns="http://www.w3.org/2000/svg"><path d="M11.636 9.46v3.036c0 1.632-.127 3.008-.383 4.129-.246 1.121-.601 2.023-1.066 2.707-.465.684-1.025 1.18-1.682 1.49-.647.301-1.376.451-2.187.451a5.466 5.466 0 0 1-1.791-.287 4.051 4.051 0 0 1-1.477-.916c-.437-.428-.81-.984-1.12-1.668-.31-.683-.548-1.513-.712-2.488-.164-.975-.246-2.114-.246-3.418V9.461c0-1.632.128-2.999.383-4.102.255-1.102.615-1.987 1.08-2.652.474-.674 1.035-1.158 1.682-1.45C4.773.968 5.502.82 6.304.82c.647 0 1.244.096 1.791.287a3.842 3.842 0 0 1 1.477.89c.437.4.811.938 1.12 1.612.31.666.543 1.481.698 2.448.164.966.246 2.1.246 3.404ZM9.23 12.907V9.037c0-.893-.041-1.677-.123-2.351a9.509 9.509 0 0 0-.356-1.75c-.154-.484-.355-.875-.601-1.176-.237-.301-.51-.52-.82-.656a2.378 2.378 0 0 0-1.026-.22c-.465 0-.88.115-1.244.343-.355.218-.66.57-.916 1.052-.246.483-.433 1.117-.56 1.9-.128.785-.192 1.737-.192 2.858v3.87c0 .893.041 1.68.123 2.364a11 11 0 0 0 .37 1.778c.163.492.364.898.6 1.217.238.319.511.556.821.71.31.146.647.22 1.012.22.483 0 .902-.12 1.258-.356.364-.237.67-.606.916-1.108.246-.51.428-1.162.547-1.955.127-.802.191-1.759.191-2.87Zm8.709-3.103h1.559c.692 0 1.267-.146 1.722-.438.456-.3.793-.706 1.012-1.217.228-.52.342-1.102.342-1.75 0-.765-.1-1.408-.301-1.927-.2-.52-.501-.912-.902-1.176-.392-.264-.89-.397-1.49-.397-.566 0-1.058.142-1.477.424-.42.274-.743.666-.97 1.176-.229.51-.343 1.112-.343 1.805h-2.406c0-1.012.21-1.933.629-2.762a5.049 5.049 0 0 1 1.805-1.982c.784-.493 1.704-.739 2.761-.739 1.012 0 1.9.215 2.666.643.766.42 1.363 1.048 1.791 1.887.438.829.657 1.864.657 3.103 0 .501-.096 1.04-.288 1.613a4.74 4.74 0 0 1-.888 1.586c-.401.493-.93.898-1.586 1.217-.647.31-1.44.465-2.379.465h-1.914V9.803Zm0 2.078v-1.518h1.914c1.112 0 2.019.15 2.72.452.703.3 1.245.701 1.628 1.203.383.5.647 1.052.793 1.654a7 7 0 0 1 .232 1.777c0 .93-.137 1.755-.41 2.475a5.067 5.067 0 0 1-1.135 1.832 4.746 4.746 0 0 1-1.695 1.135 5.726 5.726 0 0 1-2.12.382c-.747 0-1.44-.123-2.077-.369a4.989 4.989 0 0 1-1.682-1.066 4.995 4.995 0 0 1-1.135-1.736c-.264-.693-.396-1.482-.396-2.366h2.42c0 .693.114 1.3.341 1.819.228.52.556.925.985 1.216.428.283.943.424 1.545.424.601 0 1.12-.132 1.558-.396.438-.274.775-.684 1.012-1.23.246-.547.37-1.236.37-2.065 0-.83-.138-1.509-.411-2.037-.264-.538-.643-.934-1.135-1.19-.492-.264-1.08-.396-1.763-.396h-1.559Z" fill="#DF3D3A"/></svg>