<svg width="18" height="16" viewBox="0 0 20 25" fill="none" xmlns="http://www.w3.org/2000/svg"><path d="M7.74 8.936c0 2.096-.306 3.665-.918 4.707-.612 1.035-1.572 1.552-2.88 1.552-1.27 0-2.217-.498-2.842-1.494S.15 11.208.123 9.21V6.768c0-2.077.306-3.627.918-4.649C1.66 1.097 2.62.586 3.921.586c1.283 0 2.23.485 2.843 1.455.618.97.944 2.438.976 4.404v2.49ZM6.012 6.465c0-1.504-.166-2.61-.498-3.32-.332-.717-.863-1.075-1.592-1.075-.71 0-1.23.352-1.563 1.055-.332.697-.504 1.751-.517 3.164v2.93c0 1.497.172 2.623.517 3.379.345.748.873 1.123 1.582 1.123.704 0 1.221-.355 1.553-1.065.332-.71.505-1.793.518-3.252v-2.94ZM17.975 15h-7.95v-1.299l4.053-5.37c.612-.828 1.035-1.505 1.27-2.032.24-.534.361-1.097.361-1.69 0-.755-.176-1.367-.527-1.836-.352-.468-.814-.703-1.387-.703-.723 0-1.283.251-1.68.752-.39.495-.586 1.211-.586 2.149H9.801c0-1.309.358-2.367 1.074-3.174.716-.807 1.69-1.211 2.92-1.211 1.133 0 2.025.348 2.676 1.045.65.69.976 1.611.976 2.764 0 1.406-.732 3.07-2.197 4.99l-3.164 4.14h5.889V15Z" fill="#DF3D3A"/></svg>