<svg width="18" height="16" viewBox="0 0 20 25" fill="none" xmlns="http://www.w3.org/2000/svg"><path d="M7.74 8.936c0 2.096-.306 3.665-.918 4.707-.612 1.035-1.572 1.552-2.88 1.552-1.27 0-2.217-.498-2.842-1.494S.15 11.208.123 9.21V6.768c0-2.077.306-3.627.918-4.649C1.66 1.097 2.62.586 3.921.586c1.283 0 2.23.485 2.843 1.455.618.97.944 2.438.976 4.404v2.49ZM6.012 6.465c0-1.504-.166-2.61-.498-3.32-.332-.717-.863-1.075-1.592-1.075-.71 0-1.23.352-1.563 1.055-.332.697-.504 1.751-.517 3.164v2.93c0 1.497.172 2.623.517 3.379.345.748.873 1.123 1.582 1.123.704 0 1.221-.355 1.553-1.065.332-.71.505-1.793.518-3.252v-2.94Zm6.22.547h1.104c.71 0 1.256-.218 1.64-.655.385-.436.577-1.031.577-1.787 0-1.666-.645-2.5-1.934-2.5-.618 0-1.103.225-1.455.674-.351.45-.527 1.039-.527 1.768H9.918c0-1.14.345-2.077 1.035-2.813C11.65.957 12.538.586 13.62.586c1.12 0 2.009.352 2.666 1.055.658.696.986 1.686.986 2.968 0 .658-.172 1.273-.517 1.846-.339.566-.781.983-1.328 1.25 1.34.495 2.011 1.605 2.011 3.33 0 1.27-.354 2.282-1.064 3.037-.703.749-1.624 1.123-2.764 1.123-1.126 0-2.037-.354-2.734-1.064-.69-.716-1.035-1.677-1.035-2.881h1.728c0 .755.183 1.357.547 1.807.365.442.863.664 1.494.664.645 0 1.156-.218 1.534-.655.384-.436.576-1.1.576-1.992 0-1.725-.817-2.588-2.451-2.588h-1.036V7.012Z" fill="#DF3D3A"/></svg>