<svg width="16" height="16" viewBox="0 0 20 25" fill="none" xmlns="http://www.w3.org/2000/svg"><path d="M7.74 6.758v2.168c0 1.165-.09 2.148-.273 2.949-.176.8-.43 1.445-.762 1.934-.332.488-.732.843-1.201 1.064a3.663 3.663 0 0 1-1.563.322c-.455 0-.882-.068-1.279-.205a2.894 2.894 0 0 1-1.055-.654c-.312-.306-.579-.703-.8-1.191-.222-.489-.391-1.081-.508-1.778-.117-.696-.176-1.51-.176-2.441V6.758c0-1.166.091-2.142.273-2.93.183-.788.44-1.42.772-1.894.339-.482.739-.827 1.201-1.036.469-.208.99-.312 1.563-.312.462 0 .888.068 1.279.205.397.13.749.342 1.055.635.312.286.579.67.8 1.152.222.475.388 1.058.498 1.748.118.69.176 1.5.176 2.432Zm-1.719 2.46V6.456c0-.638-.029-1.198-.087-1.68a6.793 6.793 0 0 0-.254-1.25 2.54 2.54 0 0 0-.43-.84 1.535 1.535 0 0 0-.586-.468 1.698 1.698 0 0 0-.732-.156c-.332 0-.629.08-.889.244-.254.156-.472.407-.654.752-.176.345-.31.797-.4 1.357-.092.56-.137 1.24-.137 2.041V9.22c0 .638.029 1.2.087 1.69.066.487.153.91.264 1.269.117.351.26.641.43.869.17.228.364.397.586.508.221.104.462.156.722.156.345 0 .645-.085.899-.254.26-.17.478-.433.654-.791.176-.365.306-.83.39-1.396.092-.573.137-1.257.137-2.051Zm9.15-8.515V15h-1.728V2.959l-2.988 1.328v-1.63L14.908.702h.264Z" fill="#DF3D3A"/></svg>