<svg aria-hidden="true" xmlns="http://www.w3.org/2000/svg"><defs><symbol id="icon-point" viewBox="0 0 32 32"><path fill="#df3d3a" style="fill:var(--color1,#df3d3a)" d="M32 16c0 8.837-7.163 16-16 16S0 24.837 0 16 7.163 0 16 0s16 7.163 16 16z"/></symbol><symbol id="icon-quotes" viewBox="0 0 44 32"><path fill="#df3d3a" style="fill:var(--color1,#df3d3a)" d="M0 15.411V0h17.875v11.603C17.875 23.69 11.917 30.489 0 32v-6.346c3.01-.786 5.068-1.934 6.173-3.445 1.167-1.511 1.874-3.777 2.119-6.799H-.001zm25.645 0V0H43.52v11.603c0 12.087-5.958 18.886-17.875 20.397v-6.346c3.01-.786 5.068-1.934 6.173-3.445 1.167-1.511 1.874-3.777 2.119-6.799h-8.293z"/></symbol><symbol id="icon-dash" viewBox="0 0 75 32"><path fill="#df3d3a" style="fill:var(--color1,#df3d3a)" d="M67.229 5.313V27.48H7V5.313h60.229z"/></symbol><symbol id="icon-vector" viewBox="0 0 31 32"><path fill="none" stroke="#df3d3a" style="stroke:var(--color1,#df3d3a)" stroke-width="2.783" d="M1.391 29.783 29.217 1.957m0 0H1.391m27.826 0v27.826"/></symbol><symbol id="icon-logo" viewBox="0 0 260 32"><path d="M210.618 5.047h44.948l4.436-5.034h-64.367l-17.86 30.445h41.713l2.996-5.034h-23.852l4.554-7.671h23.852l2.878-5.034h-23.734l4.436-7.671zm-34.401 7.671h-17.74l2.877-4.914c1.199-2.038 2.277-2.757 4.075-2.757s2.397 1.438 1.439 3.237h18.099l1.798-3.237c1.318-2.397 1.318-5.034-1.918-5.034h-31.884c-2.877 0-5.154.36-6.832 3.117l-5.634 9.589c-1.558 2.757-1.438 5.034 2.397 5.034h18.339l-2.997 5.274c-.839 1.438-1.918 2.397-4.435 2.397-2.158 0-2.038-1.439-1.079-2.877h-17.98l-2.158 3.596c-1.318 2.277-.24 4.315 2.877 4.315h31.644c2.877 0 5.393-1.318 6.832-3.716l5.394-8.989c1.199-2.277.6-5.034-3.116-5.034z"/><path d="M253.222 5.934c-1.462 0-2.648 1.15-2.648 2.555 0 1.434 1.186 2.584 2.648 2.584 1.456 0 2.636-1.15 2.636-2.584 0-1.405-1.18-2.555-2.636-2.555zm0 4.636c-1.194 0-2.146-.91-2.146-2.082 0-1.135.952-2.053 2.146-2.053 1.18 0 2.134.917 2.134 2.053 0 1.172-.954 2.082-2.134 2.082zM135.343.013h-27.089c-3.716 0-8.51 0-11.387 5.034L84.881 25.424c-1.678 2.757-.24 5.034 2.877 5.034h31.524c3.237 0 5.274-.959 7.791-5.034l11.986-20.377c1.558-2.637-.839-5.034-3.716-5.034zM120.12 7.804l-8.99 15.223c-1.199 2.158-2.277 2.397-5.034 2.397s-3.476-.959-2.637-2.397l9.109-15.223c1.318-2.277 2.877-2.757 5.154-2.757s3.596.719 2.398 2.757zM87.877.013H53.116L38.133 25.424H5.051l-5.052 5.034h71.815c4.435 0 5.873-2.158 6.832-3.835l3.596-6.233c.959-1.678.959-3.596-.959-4.674 1.921 0 4.555-1.318 6.113-4.075l3.596-6.113c1.798-2.997-.36-5.514-3.117-5.514zm-17.86 20.496-1.798 2.877c-.479.959-1.319 2.038-3.356 2.038h-8.87l4.558-7.671h8.628c1.558 0 1.558 1.439.839 2.757zm7.552-12.705-1.798 2.877c-.48.959-1.318 2.038-3.356 2.038h-8.87L68.1 5.048h8.63c1.559 0 1.559 1.438.839 2.757z"/><path d="M254.576 7.82c0-.24-.11-.495-.328-.619-.226-.124-.472-.138-.72-.138h-1.29v2.875h.438V8.613h.518l.844 1.325h.502l-.896-1.325c.524-.015.932-.226.932-.793zm-1.42.436h-.48V7.39h.764c.372 0 .698.051.698.422 0 .517-.566.444-.982.444z"/></symbol><symbol id="icon-mark-question" viewBox="0 0 32 32"><path fill="#fff" style="fill:var(--color1,#fff)" opacity=".1" d="M32 16c0 8.837-7.138 16-15.943 16S.114 24.837.114 16 7.252 0 16.057 0 32 7.163 32 16z"/><path fill="#e7e7e7" style="fill:var(--color2,#e7e7e7)" d="M16.866 18.996h-1.728c.006-.625.055-1.136.146-1.533.091-.404.241-.772.45-1.104s.488-.71.84-1.132c.234-.306.455-.593.663-.86.215-.273.388-.566.518-.879.13-.319.195-.7.195-1.142 0-.45-.065-.837-.195-1.162a1.59 1.59 0 0 0-.553-.749l-.004-.003c-.24-.176-.537-.264-.888-.264a1.685 1.685 0 0 0-1.475.84c-.17.28-.254.648-.254 1.103h-1.729c.014-.735.17-1.367.47-1.894a3.166 3.166 0 0 1 1.214-1.203l.016-.008c.52-.28 1.107-.42 1.758-.42.71 0 1.315.15 1.816.45s.882.728 1.143 1.288c.267.554.4 1.211.4 1.973a4.04 4.04 0 0 1-.322 1.621 6.741 6.741 0 0 1-.804 1.395l.013-.018c-.32.43-.648.84-.987 1.23-.28.332-.468.707-.566 1.123a6.156 6.156 0 0 0-.137 1.308v.042-.002zM15.1 22.092c0-.293.081-.54.244-.742.169-.202.413-.303.732-.303.326 0 .57.1.733.303.169.201.253.449.253.742 0 .28-.084.52-.253.723-.163.201-.407.302-.733.302-.319 0-.563-.1-.732-.303a1.11 1.11 0 0 1-.244-.697v-.026.001z"/></symbol><symbol id="icon-play" viewBox="0 0 32 32"><path d="M32 16c0 8.837-7.163 16-16 16S0 24.837 0 16 7.163 0 16 0s16 7.163 16 16z"/><path d="m20.845 15.887-7.099 4.098v-8.197l7.099 4.098z"/></symbol><symbol id="icon-hamburger" viewBox="0 0 59 32"><path d="M58.667 32H0v-5.333h58.667V32zm0-13.333H0v-5.333h58.667v5.333zm0-13.334H0V0h58.667v5.333z"/></symbol><symbol id="icon-menu-close" viewBox="0 0 32 32"><path d="M24.122 7.152a1.333 1.333 0 0 1 0 1.886l-6.599 6.599 6.599 6.601a1.333 1.333 0 1 1-1.886 1.886l-6.599-6.601-6.601 6.601a1.333 1.333 0 1 1-1.886-1.886l6.601-6.601L7.15 9.038a1.333 1.333 0 1 1 1.886-1.886l6.601 6.599 6.599-6.599a1.333 1.333 0 0 1 1.886 0z"/></symbol><symbol id="icon-logo-small" viewBox="0 0 267 32"><path d="M216.019 5.3h46.101l4.549-5.287h-66.017l-18.317 31.972h42.782l3.073-5.287h-24.464l4.671-8.056h24.464l2.951-5.287H211.47l4.549-8.056zm-35.282 8.056h-18.195l2.95-5.161c1.23-2.14 2.336-2.895 4.18-2.895s2.459 1.511 1.475 3.399h18.563l1.844-3.399c1.352-2.518 1.352-5.287-1.967-5.287h-32.701c-2.95 0-5.286.378-7.008 3.273l-5.778 10.07c-1.598 2.895-1.475 5.287 2.459 5.287h18.809l-3.073 5.538c-.861 1.511-1.967 2.517-4.549 2.517-2.213 0-2.09-1.511-1.106-3.021h-18.441l-2.213 3.776c-1.352 2.391-.246 4.531 2.95 4.531h32.455c2.95 0 5.532-1.385 7.008-3.902l5.532-9.44c1.23-2.392.615-5.287-3.196-5.287z"/><path d="M259.715 6.231c-1.5 0-2.717 1.208-2.717 2.683a2.71 2.71 0 0 0 2.717 2.713 2.704 2.704 0 0 0 2.703-2.713c0-1.475-1.21-2.683-2.703-2.683zm0 4.869c-1.225 0-2.202-.956-2.202-2.186 0-1.192.978-2.156 2.202-2.156 1.209 0 2.187.963 2.187 2.156 0 1.23-.978 2.186-2.187 2.186zM138.813.013H111.03c-3.811 0-8.729 0-11.679 5.287L87.057 26.698c-1.721 2.895-.246 5.287 2.95 5.287h32.332c3.32 0 5.409-1.007 7.991-5.287L142.624 5.3c1.598-2.769-.861-5.287-3.811-5.287zM123.2 8.195l-9.22 15.986c-1.23 2.266-2.336 2.517-5.163 2.517s-3.565-1.007-2.705-2.517l9.343-15.986c1.352-2.392 2.95-2.895 5.286-2.895s3.689.755 2.459 2.895zM90.13.013H54.478L39.111 26.698H5.181L0 31.985h73.657c4.548 0 6.024-2.266 7.007-4.028l3.688-6.546c.983-1.762.983-3.776-.983-4.909 1.971 0 4.671-1.385 6.27-4.28l3.688-6.419c1.844-3.147-.369-5.79-3.196-5.79zM71.813 21.537l-1.844 3.021c-.491 1.007-1.352 2.14-3.442 2.14H57.43l4.675-8.056h8.849c1.598 0 1.598 1.511.86 2.895zm7.744-13.342-1.844 3.021c-.492 1.007-1.352 2.14-3.442 2.14h-9.097L69.845 5.3h8.851c1.598 0 1.598 1.511.861 2.895z"/><path d="M261.102 8.212c0-.252-.112-.52-.335-.65-.232-.13-.485-.145-.739-.145h-1.322v3.019h.449V9.045h.53l.866 1.391h.515l-.918-1.391c.537-.015.955-.237.955-.833zm-1.455.458h-.493v-.91h.784c.381 0 .717.053.717.443 0 .543-.582.466-1.008.466z"/></symbol></defs></svg>