<svg aria-hidden="true" xmlns="http://www.w3.org/2000/svg">
    <defs>
        <symbol id="icon-point" viewBox="0 0 32 32">
            <path fill="#df3d3a" style="fill:var(--color1, #df3d3a)"
                d="M32 16c0 8.837-7.163 16-16 16S0 24.837 0 16 7.163 0 16 0s16 7.163 16 16z" />
        </symbol>
        <symbol id="icon-quotes" viewBox="0 0 44 32">
            <path fill="#df3d3a" style="fill:var(--color1, #df3d3a)"
                d="M0 15.411V0h17.875v11.603C17.875 23.69 11.917 30.489 0 32v-6.346c3.01-.786 5.068-1.934 6.173-3.445 1.167-1.511 1.874-3.777 2.119-6.799H-.001zm25.645 0V0H43.52v11.603c0 12.087-5.958 18.886-17.875 20.397v-6.346c3.01-.786 5.068-1.934 6.173-3.445 1.167-1.511 1.874-3.777 2.119-6.799h-8.293z" />
        </symbol>
        <symbol id="icon-dash" viewBox="0 0 75 32">
            <path fill="#df3d3a" style="fill:var(--color1, #df3d3a)" d="M67.229 5.313V27.48H7V5.313h60.229z" />
        </symbol>
        <symbol id="icon-vector" viewBox="0 0 31 32">
            <path fill="none" stroke="#df3d3a" style="stroke:var(--color1, #df3d3a)" stroke-width="2.783"
                d="M1.391 29.783 29.217 1.957m0 0H1.391m27.826 0v27.826" />
        </symbol>
        <symbol id="icon-logo" viewBox="0 0 260 32">
            <path
                d="M210.618 5.047h44.948l4.436-5.034h-64.367l-17.86 30.445h41.713l2.996-5.034h-23.852l4.554-7.671h23.852l2.878-5.034h-23.734l4.436-7.671zm-34.401 7.671h-17.74l2.877-4.914c1.199-2.038 2.277-2.757 4.075-2.757s2.397 1.438 1.439 3.237h18.099l1.798-3.237c1.318-2.397 1.318-5.034-1.918-5.034h-31.884c-2.877 0-5.154.36-6.832 3.117l-5.634 9.589c-1.558 2.757-1.438 5.034 2.397 5.034h18.339l-2.997 5.274c-.839 1.438-1.918 2.397-4.435 2.397-2.158 0-2.038-1.439-1.079-2.877h-17.98l-2.158 3.596c-1.318 2.277-.24 4.315 2.877 4.315h31.644c2.877 0 5.393-1.318 6.832-3.716l5.394-8.989c1.199-2.277.6-5.034-3.116-5.034z" />
            <path
                d="M253.222 5.934c-1.462 0-2.648 1.15-2.648 2.555 0 1.434 1.186 2.584 2.648 2.584 1.456 0 2.636-1.15 2.636-2.584 0-1.405-1.18-2.555-2.636-2.555zm0 4.636c-1.194 0-2.146-.91-2.146-2.082 0-1.135.952-2.053 2.146-2.053 1.18 0 2.134.917 2.134 2.053 0 1.172-.954 2.082-2.134 2.082zM135.343.013h-27.089c-3.716 0-8.51 0-11.387 5.034L84.881 25.424c-1.678 2.757-.24 5.034 2.877 5.034h31.524c3.237 0 5.274-.959 7.791-5.034l11.986-20.377c1.558-2.637-.839-5.034-3.716-5.034zM120.12 7.804l-8.99 15.223c-1.199 2.158-2.277 2.397-5.034 2.397s-3.476-.959-2.637-2.397l9.109-15.223c1.318-2.277 2.877-2.757 5.154-2.757s3.596.719 2.398 2.757zM87.877.013H53.116L38.133 25.424H5.051l-5.052 5.034h71.815c4.435 0 5.873-2.158 6.832-3.835l3.596-6.233c.959-1.678.959-3.596-.959-4.674 1.921 0 4.555-1.318 6.113-4.075l3.596-6.113c1.798-2.997-.36-5.514-3.117-5.514zm-17.86 20.496-1.798 2.877c-.479.959-1.319 2.038-3.356 2.038h-8.87l4.558-7.671h8.628c1.558 0 1.558 1.439.839 2.757zm7.552-12.705-1.798 2.877c-.48.959-1.318 2.038-3.356 2.038h-8.87L68.1 5.048h8.63c1.559 0 1.559 1.438.839 2.757z" />
            <path
                d="M254.576 7.82c0-.24-.11-.495-.328-.619-.226-.124-.472-.138-.72-.138h-1.29v2.875h.438V8.613h.518l.844 1.325h.502l-.896-1.325c.524-.015.932-.226.932-.793zm-1.42.436h-.48V7.39h.764c.372 0 .698.051.698.422 0 .517-.566.444-.982.444z" />
        </symbol>
        <symbol id="icon-mark-question" viewBox="0 0 32 32">
            <path fill="#fff" style="fill: var(--color1, #fff)" opacity="0.1"
                d="M32 16c0 8.837-7.138 16-15.943 16s-15.943-7.163-15.943-16c0-8.837 7.138-16 15.943-16s15.943 7.163 15.943 16z">
            </path>
            <path fill="#e7e7e7" style="fill: var(--color2, #e7e7e7)"
                d="M16.866 18.996h-1.728c0.006-0.625 0.055-1.136 0.146-1.533 0.091-0.404 0.241-0.772 0.45-1.104s0.488-0.71 0.84-1.132c0.234-0.306 0.455-0.593 0.663-0.86 0.215-0.273 0.388-0.566 0.518-0.879 0.13-0.319 0.195-0.7 0.195-1.142 0-0.45-0.065-0.837-0.195-1.162-0.11-0.308-0.303-0.564-0.553-0.749l-0.004-0.003c-0.24-0.176-0.537-0.264-0.888-0.264-0.28 0-0.554 0.068-0.82 0.205-0.261 0.137-0.48 0.348-0.655 0.635-0.17 0.28-0.254 0.648-0.254 1.103h-1.729c0.014-0.735 0.17-1.367 0.47-1.894 0.294-0.513 0.712-0.925 1.214-1.203l0.016-0.008c0.52-0.28 1.107-0.42 1.758-0.42 0.71 0 1.315 0.15 1.816 0.45s0.882 0.728 1.143 1.288c0.267 0.554 0.4 1.211 0.4 1.973 0 0.586-0.108 1.126-0.322 1.621-0.227 0.526-0.492 0.979-0.804 1.395l0.013-0.018c-0.32 0.43-0.648 0.84-0.987 1.23-0.28 0.332-0.468 0.707-0.566 1.123-0.087 0.393-0.137 0.845-0.137 1.308 0 0.014 0 0.028 0 0.042v-0.002zM15.1 22.092c0-0.293 0.081-0.54 0.244-0.742 0.169-0.202 0.413-0.303 0.732-0.303 0.326 0 0.57 0.1 0.733 0.303 0.169 0.201 0.253 0.449 0.253 0.742 0 0.28-0.084 0.52-0.253 0.723-0.163 0.201-0.407 0.302-0.733 0.302-0.319 0-0.563-0.1-0.732-0.303-0.152-0.189-0.244-0.432-0.244-0.697 0-0.009 0-0.018 0-0.026l-0 0.001z">
            </path>
        </symbol>
        <symbol id="icon-play" viewBox="0 0 32 32">
            <path d="M32 16c0 8.837-7.163 16-16 16S0 24.837 0 16 7.163 0 16 0s16 7.163 16 16z" />
            <path d="m20.845 15.887-7.099 4.098v-8.197l7.099 4.098z" />
        </symbol>
        <symbol id="icon-hamburger" viewBox="0 0 59 32">
            <path
                d="M58.667 32h-58.667v-5.333h58.667v5.333zM58.667 18.667h-58.667v-5.333h58.667v5.333zM58.667 5.333h-58.667v-5.333h58.667v5.333z">
            </path>
        </symbol>
        <symbol id="icon-menu-close" viewBox="0 0 32 32">
            <path
                d="M24.122 7.152c0.521 0.521 0.521 1.365 0 1.886l-6.599 6.599 6.599 6.601c0.521 0.521 0.521 1.365 0 1.886s-1.365 0.521-1.886 0l-6.599-6.601-6.601 6.601c-0.521 0.521-1.365 0.521-1.886 0s-0.521-1.365 0-1.886l6.601-6.601-6.601-6.599c-0.521-0.521-0.521-1.365 0-1.886s1.365-0.521 1.886 0l6.601 6.599 6.599-6.599c0.521-0.521 1.365-0.521 1.886 0z">
            </path>
        </symbol>

        <symbol id="icon-logo-small" viewBox="0 0 267 32">
            <path
                d="M216.019 5.3h46.101l4.549-5.287h-66.017l-18.317 31.972h42.782l3.073-5.287h-24.464l4.671-8.056h24.464l2.951-5.287h-24.342l4.549-8.056zM180.737 13.356h-18.195l2.95-5.161c1.23-2.14 2.336-2.895 4.18-2.895s2.459 1.511 1.475 3.399h18.563l1.844-3.399c1.352-2.518 1.352-5.287-1.967-5.287h-32.701c-2.95 0-5.286 0.378-7.008 3.273l-5.778 10.070c-1.598 2.895-1.475 5.287 2.459 5.287h18.809l-3.073 5.538c-0.861 1.511-1.967 2.517-4.549 2.517-2.213 0-2.090-1.511-1.106-3.021h-18.441l-2.213 3.776c-1.352 2.391-0.246 4.531 2.95 4.531h32.455c2.95 0 5.532-1.385 7.008-3.902l5.532-9.44c1.23-2.392 0.615-5.287-3.196-5.287v0z">
            </path>
            <path
                d="M259.715 6.231c-1.5 0-2.717 1.208-2.717 2.683 0 1.506 1.217 2.713 2.717 2.713 1.493 0 2.703-1.208 2.703-2.713-0-1.475-1.21-2.683-2.703-2.683zM259.715 11.1c-1.225 0-2.202-0.956-2.202-2.186 0-1.192 0.978-2.156 2.202-2.156 1.209 0 2.187 0.963 2.187 2.156 0 1.23-0.978 2.186-2.187 2.186v0zM138.813 0.013h-27.783c-3.811 0-8.729 0-11.679 5.287l-12.294 21.398c-1.721 2.895-0.246 5.287 2.95 5.287h32.332c3.32 0 5.409-1.007 7.991-5.287l12.294-21.398c1.598-2.769-0.861-5.287-3.811-5.287zM123.2 8.195l-9.22 15.986c-1.23 2.266-2.336 2.517-5.163 2.517s-3.565-1.007-2.705-2.517l9.343-15.986c1.352-2.392 2.95-2.895 5.286-2.895s3.689 0.755 2.459 2.895zM90.13 0.013h-35.652l-15.367 26.685h-33.93l-5.181 5.287h73.657c4.548 0 6.024-2.266 7.007-4.028l3.688-6.546c0.983-1.762 0.983-3.776-0.983-4.909 1.971 0 4.671-1.385 6.27-4.28l3.688-6.419c1.844-3.147-0.369-5.79-3.196-5.79zM71.813 21.537l-1.844 3.021c-0.491 1.007-1.352 2.14-3.442 2.14h-9.097l4.675-8.056h8.849c1.598 0 1.598 1.511 0.86 2.895v0zM79.557 8.195l-1.844 3.021c-0.492 1.007-1.352 2.14-3.442 2.14h-9.097l4.671-8.056h8.851c1.598 0 1.598 1.511 0.861 2.895v0z">
            </path>
            <path
                d="M261.102 8.212c0-0.252-0.112-0.52-0.335-0.65-0.232-0.13-0.485-0.145-0.739-0.145h-1.322v3.019h0.449v-1.391h0.53l0.866 1.391h0.515l-0.918-1.391c0.537-0.015 0.955-0.237 0.955-0.833zM259.647 8.67h-0.493v-0.91h0.784c0.381 0 0.717 0.053 0.717 0.443 0 0.543-0.582 0.466-1.008 0.466z">
            </path>
        </symbol>
    </defs>
</svg>